<svg xmlns="http://www.w3.org/2000/svg" xmlns:xlink="http://www.w3.org/1999/xlink" width="1473.515" height="925.41" viewBox="0 0 1473.515 925.41"><defs><style>.a{fill:none;}.b,.x{fill:#f8f9fb;}.c,.s{fill:#efb31d;}.d{clip-path:url(#c);}.e{fill:#012f70;}.f{fill:#f7b472;}.g{fill:#212c6c;}.h{fill:#f98935;}.i{fill:#e9efff;}.j{fill:#f9a542;}.k{fill:#dd9554;}.l{fill:#6387ff;}.m{fill:#1d4ded;}.n{fill:#fff;}.o{fill:#5a81ff;}.p{fill:#c5d6ff;}.q,.r{fill:#aed9ff;}.r{fill-rule:evenodd;}.s{font-size:41px;font-family:Poppins-Black, Poppins;font-weight:800;}.t{fill:#80a5b4;}.u,.v{fill:#666;font-size:15px;}.u{font-family:Montserrat-Regular, Montserrat;}.v{font-family:Poppins-Regular, Poppins;}.w{fill:url(#d);}.x{font-size:30px;font-family:Montserrat-Bold, Montserrat;font-weight:700;}.y{clip-path:url(#g);}.z{opacity:0.16;fill:url(#h);}.aa{opacity:0.38;fill:url(#i);}.ab{filter:url(#e);}.ac{filter:url(#a);}</style><filter id="a" x="0" y="0" width="1473.515" height="925.41" filterUnits="userSpaceOnUse"><feOffset dx="7" dy="7" input="SourceAlpha"/><feGaussianBlur stdDeviation="2.5" result="b"/><feFlood flood-opacity="0.451"/><feComposite operator="in" in2="b"/><feComposite in="SourceGraphic"/></filter><clipPath id="c"><rect class="a" width="634.085" height="910.41"/></clipPath><linearGradient id="d" x1="0.5" y1="1.79" x2="0.5" y2="-0.806" gradientUnits="objectBoundingBox"><stop offset="0" stop-color="#012f70"/><stop offset="1" stop-color="#546496"/></linearGradient><filter id="e" x="287.221" y="720.861" width="271.488" height="91.393" filterUnits="userSpaceOnUse"><feOffset dx="7" dy="7" input="SourceAlpha"/><feGaussianBlur stdDeviation="2.5" result="f"/><feFlood flood-color="#1f2026" flood-opacity="0.349"/><feComposite operator="in" in2="f"/><feComposite in="SourceGraphic"/></filter><clipPath id="g"><rect class="a" width="1458.515" height="910.41"/></clipPath><linearGradient id="h" x1="0.496" y1="0.931" x2="0.512" y2="-0.423" gradientUnits="objectBoundingBox"><stop offset="0" stop-color="#fff" stop-opacity="0"/><stop offset="0.999" stop-color="#fff"/></linearGradient><linearGradient id="i" x1="0" y1="0.5" x2="1" y2="0.5" xlink:href="#h"/></defs><g transform="translate(525.278 -34.354)"><g class="ac" transform="matrix(1, 0, 0, 1, -525.28, 34.35)"><rect class="b" width="1458.515" height="910.41" transform="translate(0.5 0.5)"/></g><rect class="c" width="634.085" height="910.41" transform="translate(299.651 34.854)"/><g transform="translate(299.651 34.854)"><g class="d"><g transform="translate(-49.029 166.093)"><path class="e" d="M563.654,765.457,563.622,120.7c-181.428-92.9-212.137,36.513-317.834,12.751C109.927,102.912,49.825,118.82-13,298.091S-271.467,432.741-282.263,579.86q-.221,3.048-.362,6.041c-3.951,84.63,55.02,156.832,134.333,175.1a175.043,175.043,0,0,0,39.343,4.458Z" transform="translate(282.812 -86.684)"/><g transform="translate(52.927 141.087)"><path class="f" d="M-176.208,295.187l-13.863-17.571s5.611-15.491,0-27-8.511-28.713-11.745-28.678-10.969,11.194-1.6,29.184c0,0-31.213-4.618-39.894-15.507s-13.373-23.64-18.013-17.882-11.466,27.752,8.591,49.838,41.019,21,41.019,21l22.653,31.889,21.733-17.334Z" transform="translate(266.296 57.986)"/><path class="g" d="M-65.385,142.179s-30.78-28.031-74.1,3.554c-39.615,28.883-50.761,84.434-35.824,127.494s12.293,72.869.433,122.989c-9.713,41.044,161.553,0,161.553,0s-12.95-43.185-11.264-70.571c2.381-38.721,27.466-63.428,11.232-128.139C-28.971,135.279-65.385,142.179-65.385,142.179Z" transform="translate(452.858 -130.71)"/><path class="h" d="M-14.961,239.631l-31.28-35.584s-55.33,68.011-83.181,171.67c0,0-51.184-47.316-74.59-63.726,0,0-32.245,7.569-45.983,32.312,0,0,90.3,132.375,124.408,145.927S-22.7,393.72-22.7,393.72Z" transform="translate(302.234 30.967)"/><path class="h" d="M-110.37,235l18.295-30.95s48.646,53.475,85.284,162.591l5.554,97.272-108.732,9.556-27.88-114.654Z" transform="translate(549.469 30.967)"/><path class="i" d="M-70.159,517.156c7.124-33.546,30.694-164.812,30.694-164.812l-6.291-139.726-62.15-13.305-62.147,13.305-6.294,139.726s23.57,131.266,30.693,164.812Z" transform="translate(464.6 20.53)"/><path class="j" d="M-136.4,525.783h66.992C-65.961,486.04-51.541,302.2-71.861,223.11a400.255,400.255,0,0,0-75.157-27.71S-131.95,397.311-136.4,525.783Z" transform="translate(529.256 11.904)"/><path class="j" d="M-114.56,525.783C-119.008,397.311-103.94,195.4-103.94,195.4A400.257,400.257,0,0,0-179.1,223.11c-20.32,79.086-5.9,262.93-2.455,302.673Z" transform="translate(435.09 11.904)"/><path class="k" d="M-137.416,181.532l21.093,11.8,4.451,32.642s-1.98,18.984-25.544,30.937c-23.56-11.953-25.544-30.937-25.544-30.937l4.454-32.642Z" transform="translate(494.11 -18.67)"/><path class="l" d="M-113.435,210.206l-4.967-10.187s-1.506-50.588-24.159-60.688c0,0,31.312,4.977,33.308,70.876Z" transform="translate(539.081 -111.707)"/><path class="l" d="M-173.629,210.206l4.97-10.187s1.5-50.588,24.159-60.688c0,0-31.315,4.977-33.312,70.876Z" transform="translate(461.37 -111.707)"/><circle class="m" cx="27.655" cy="27.655" r="27.655" transform="translate(382.498 135.457) rotate(-76.778)"/><circle class="m" cx="27.655" cy="27.655" r="27.655" transform="translate(258.532 114.86) rotate(-45)"/><rect class="l" width="16.155" height="59.638" rx="1.222" transform="translate(404.524 85.082)"/><rect class="l" width="16.155" height="59.638" rx="1.222" transform="translate(308.865 144.719) rotate(180)"/><path class="f" d="M-117.2,139.1c30.78,0,55.193,27.72,54.927,75.917-.272,49.738-19.263,84.8-54.927,84.8s-54.654-35.061-54.927-84.8C-172.39,166.821-147.981,139.1-117.2,139.1Z" transform="translate(473.895 -112.212)"/><path class="n" d="M-126.324,237.942c10.258-.16,40.455,24.31,40.455,24.31s3.1-35.19-.6-54.654c0,0-4.531-11.665-15.933-15.914,0,0-2.25,18.061-23.919,41.342-21.666-23.281-23.919-41.342-23.919-41.342-11.4,4.249-15.933,15.914-15.933,15.914-3.7,19.465-.6,54.654-.6,54.654S-136.581,237.782-126.324,237.942Z" transform="translate(483.017 3.711)"/><path class="g" d="M-165.3,195.557l-8.88,12.344s-2.218,20.282-.176,34.062c0,0,73.308-5.115,89.526-66.3,0,0,1.859,61.259,38.442,70.123,0,0,1.839-27.229-.208-35.76-2.919-12.165-17.968-40-17.968-40L-82.485,146.3l-27.585-12.014-28.415,7.761-4.951,12.2-14.77,14.171Z" transform="translate(467.072 -122.821)"/><path class="n" d="M-141.647,177.677h-19.417s.926,10.889,10.014,16.8a16.9,16.9,0,0,0,18.8,0c9.088-5.906,10.018-16.8,10.018-16.8Z" transform="translate(498.29 -27.168)"/><path class="n" d="M-161.064,177.677a23.008,23.008,0,0,0,.993,4.461h36.846a23.194,23.194,0,0,0,1-4.461h-38.836Z" transform="translate(498.29 -27.168)"/><g transform="translate(352.8 289.308)"><circle class="n" cx="5.26" cy="5.26" r="5.26"/><circle class="n" cx="5.26" cy="5.26" r="5.26" transform="translate(0 77.927)"/><circle class="n" cx="5.26" cy="5.26" r="5.26" transform="translate(0 155.854)"/></g></g><g transform="translate(403.635 496.204)"><path class="m" d="M-.246,241.526-60.169,409.2h-96.688v14.9H184.229l65.246-182.569Z" transform="translate(156.857 -241.526)"/><path class="o" d="M125.283,424.095H-124.438l65.246-182.569H190.529Z" transform="translate(228.327 -241.526)"/><path class="p" d="M-40.9,287.777c-2.907,14.293-13.2,25.877-22.983,25.877s-15.36-11.585-12.453-25.877S-63.14,261.9-53.353,261.9-37.993,273.488-40.9,287.777Z" transform="translate(332.674 -196.603)"/></g><g transform="translate(109.603 19.682)"><g transform="translate(419.433 263.757)"><g transform="translate(11.403)"><circle class="q" cx="66.362" cy="66.362" r="66.362"/><circle class="n" cx="48.755" cy="48.755" r="48.755" transform="translate(17.607 17.607)"/></g><path class="n" d="M-81.09,219.65-117.725,195.2l44.011-5.116Z" transform="translate(117.725 -142.16)"/><path class="q" d="M-101.488,189.531v40.435h51.462V189.531Zm47.412,2.339-21.679,21.057L-97.437,191.87Z" transform="translate(153.521 -143.387)"/></g><g transform="translate(380.652)"><circle class="q" cx="66.362" cy="66.362" r="66.362"/><circle class="n" cx="48.755" cy="48.755" r="48.755" transform="translate(10.389 106.625) rotate(-80.729)"/><path class="n" d="M-104.356,117.293l-23.1,54.316,50.3-27.158Z" transform="translate(135.06 -38.886)"/><path class="q" d="M-111.758,144.706V107.771l29.546,18.467Z" transform="translate(169.662 -59.877)"/></g><g transform="translate(0 206.208)"><g transform="translate(0 0)"><circle class="q" cx="66.362" cy="66.362" r="66.362" transform="translate(0 129.002) rotate(-76.399)"/><circle class="n" cx="48.755" cy="48.755" r="48.755" transform="translate(21.521 116.464) rotate(-76.824)"/></g><path class="n" d="M-215.087,218.755l50.73-21.442-48.186-21.442Z" transform="translate(322.515 -115.955)"/><g transform="translate(59.232 54.896)"><path class="r" d="M-230.127,187.885a14.14,14.14,0,0,1,4.82-10.6c1.192-1.147,2.881-3.221,4.711-2.958,1.936.218,3.33,2.355,4.307,3.826,1.641,2.605,4.352,6.384,1.843,9.3-1.16,1.375-3.022,2.105-4.105,3.58-1.1,1.532-.465,3.548.295,5.066a30.2,30.2,0,0,0,7.64,9.143c1.333,1.1,3.128,2.4,4.925,2.105,1.875-.311,3.349-2.368,4.727-3.531,3.531-2.852,7.422,1.051,10.008,3.378,1.243,1.1,2.65,2.541,2.576,4.291-.064,1.814-2.419,3.285-3.692,4.339a14.24,14.24,0,0,1-12.149,2.849c-4.659-1.006-8.614-3.778-12.145-6.925a55.74,55.74,0,0,1-9.3-10.985,29.653,29.653,0,0,1-3.07-5.964,30.653,30.653,0,0,1-1.394-6.912C-230.1,185.546-229.97,189.138-230.127,187.885Z" transform="translate(230.127 -174.304)"/></g></g></g><path class="n" d="M-210.693,217.845v8.46a.952.952,0,0,1-.952.952.953.953,0,0,1-.955-.952v-8.46a.953.953,0,0,1,.955-.952A.952.952,0,0,1-210.693,217.845Zm-.952,14.94a.953.953,0,0,0-.955.955V242.2a.953.953,0,0,0,.955.955.953.953,0,0,0,.952-.955v-8.457A.953.953,0,0,0-211.645,232.785Zm12.174-3.717h-8.46a.953.953,0,0,0-.952.955.955.955,0,0,0,.952.955h8.46a.955.955,0,0,0,.952-.955A.953.953,0,0,0-199.47,229.067Zm-15.895,0h-8.457a.953.953,0,0,0-.955.955.955.955,0,0,0,.955.955h8.457a.955.955,0,0,0,.955-.955A.953.953,0,0,0-215.365,229.067Z" transform="translate(410.757 200.373)"/><path class="n" d="M-14.655,179.968a22.436,22.436,0,0,0-.7-5.467l3.91-3.849-2.23-3.868-.324-.558-2.23-3.865-5.284,1.458a22.434,22.434,0,0,0-9.473-5.47l-1.378-5.3h-9.575l-1.378,5.3a22.42,22.42,0,0,0-9.473,5.47l-5.281-1.458-2.234,3.865-.32.558-2.234,3.868,3.91,3.849a22.435,22.435,0,0,0-.7,5.467,22.429,22.429,0,0,0,.7,5.464l-3.91,3.849,2.234,3.868.32.558,2.234,3.868,5.281-1.458a22.453,22.453,0,0,0,9.473,5.47l1.378,5.3h9.575l1.378-5.3a22.464,22.464,0,0,0,9.476-5.47l5.281,1.458,2.23-3.868.324-.558,2.23-3.868-3.91-3.849A22.43,22.43,0,0,0-14.655,179.968Zm-22.493,11.309a11.309,11.309,0,0,1-11.309-11.309,11.31,11.31,0,0,1,11.309-11.312,11.312,11.312,0,0,1,11.312,11.312A11.312,11.312,0,0,1-37.148,191.277Z" transform="translate(767.727 59.617)"/><g transform="translate(79.363 67.576)"><path class="n" d="M-21.43,120.249v8.46a.952.952,0,0,1-.952.952.953.953,0,0,1-.955-.952v-8.46a.953.953,0,0,1,.955-.952A.952.952,0,0,1-21.43,120.249Zm-.952,14.943a.953.953,0,0,0-.955.952v8.46a.953.953,0,0,0,.955.952.952.952,0,0,0,.952-.952v-8.46A.952.952,0,0,0-22.382,135.192Zm12.174-3.717h-8.457a.953.953,0,0,0-.955.952.953.953,0,0,0,.955.955h8.457a.953.953,0,0,0,.955-.955A.953.953,0,0,0-10.207,131.474Zm-15.895,0h-8.457a.955.955,0,0,0-.955.952.955.955,0,0,0,.955.955H-26.1a.953.953,0,0,0,.955-.955A.953.953,0,0,0-26.1,131.474Z" transform="translate(748.64 -82.361)"/><path class="n" d="M-144.576,108.726v8.457a.953.953,0,0,1-.952.955.953.953,0,0,1-.955-.955v-8.457a.953.953,0,0,1,.955-.955A.953.953,0,0,1-144.576,108.726Zm-.952,14.94a.953.953,0,0,0-.955.955v8.457a.953.953,0,0,0,.955.955.953.953,0,0,0,.952-.955v-8.457A.953.953,0,0,0-145.528,123.666Zm12.174-3.717h-8.46a.953.953,0,0,0-.952.955.952.952,0,0,0,.952.952h8.46a.952.952,0,0,0,.952-.952A.953.953,0,0,0-133.353,119.948Zm-15.895,0h-8.457a.953.953,0,0,0-.955.955.953.953,0,0,0,.955.952h8.457a.953.953,0,0,0,.955-.952A.953.953,0,0,0-149.248,119.948Z" transform="translate(477.154 -107.771)"/><path class="n" d="M-41.046,205.432v8.457a.953.953,0,0,1-.955.955.955.955,0,0,1-.955-.955v-8.457a.955.955,0,0,1,.955-.955A.953.953,0,0,1-41.046,205.432ZM-42,220.372a.955.955,0,0,0-.955.952v8.46a.955.955,0,0,0,.955.952.953.953,0,0,0,.955-.952v-8.46A.953.953,0,0,0-42,220.372Zm12.174-3.717h-8.457a.953.953,0,0,0-.955.952.953.953,0,0,0,.955.955h8.457a.953.953,0,0,0,.955-.955A.953.953,0,0,0-29.827,216.654Zm-15.892,0h-8.46a.952.952,0,0,0-.952.952.953.953,0,0,0,.952.955h8.46a.953.953,0,0,0,.952-.955A.952.952,0,0,0-45.718,216.654Z" transform="translate(705.395 105.426)"/><path class="n" d="M-100.871,161.034v8.457a.953.953,0,0,1-.955.955.953.953,0,0,1-.952-.955v-8.457a.953.953,0,0,1,.952-.955A.953.953,0,0,1-100.871,161.034Zm-.955,14.94a.953.953,0,0,0-.952.955v8.457a.953.953,0,0,0,.952.955.953.953,0,0,0,.955-.955v-8.457A.953.953,0,0,0-101.826,175.974Zm12.174-3.717h-8.457a.955.955,0,0,0-.955.955.955.955,0,0,0,.955.952h8.457a.953.953,0,0,0,.955-.952A.953.953,0,0,0-89.652,172.256Zm-15.892,0H-114a.953.953,0,0,0-.955.955.953.953,0,0,0,.955.952h8.457a.955.955,0,0,0,.955-.952A.955.955,0,0,0-105.543,172.256Z" transform="translate(573.505 7.546)"/><path class="n" d="M-226.524,281.739a14.777,14.777,0,0,0-.455-3.576l2.557-2.516-1.461-2.532-.212-.362-1.458-2.532-3.455.955a14.67,14.67,0,0,0-6.2-3.576l-.9-3.471h-6.262l-.9,3.471a14.689,14.689,0,0,0-6.2,3.576l-3.451-.955-1.461,2.532-.211.362-1.458,2.532,2.557,2.516a14.622,14.622,0,0,0-.455,3.576,14.616,14.616,0,0,0,.455,3.573l-2.557,2.519,1.458,2.528.211.362,1.461,2.532,3.451-.955a14.691,14.691,0,0,0,6.2,3.576l.9,3.471h6.262l.9-3.471a14.652,14.652,0,0,0,6.2-3.576l3.455.955,1.461-2.532.208-.362,1.461-2.528-2.557-2.519A14.771,14.771,0,0,0-226.524,281.739Zm-14.712,7.4a7.4,7.4,0,0,1-7.4-7.4,7.4,7.4,0,0,1,7.4-7.4,7.4,7.4,0,0,1,7.4,7.4A7.4,7.4,0,0,1-241.236,289.135Z" transform="translate(258.047 236.936)"/></g></g></g></g><g transform="translate(-283.313 212.01)"><text class="s" transform="translate(4 -21)"><tspan x="0" y="0">¿TIENES DUDAS?</tspan></text></g><g transform="translate(-425.36 428.695)"><rect class="t" width="632.094" height="1.264"/></g><text class="u" transform="translate(-425.358 394.625)"><tspan x="0" y="0">Email</tspan></text><g transform="translate(-425.36 529.014)"><rect class="t" width="632.094" height="1.264"/></g><text class="u" transform="translate(-425.358 494.944)"><tspan x="0" y="0">Teléfono</tspan></text><g transform="translate(-425.36 696.333)"><rect class="t" width="632.094" height="1.264"/></g><text class="u" transform="translate(-425.358 595.263)"><tspan x="0" y="0">Mensaje</tspan></text><g transform="translate(-425.36 328.377)"><rect class="t" width="279.385" height="1.263"/></g><text class="v" transform="translate(-425.358 293.307)"><tspan x="0" y="0">Nombre</tspan></text><text class="v" transform="translate(-78.976 293.307)"><tspan x="0" y="0">Apellido</tspan></text><g transform="translate(-78.976 239.366)"><g transform="translate(0 89.011)"><rect class="t" width="279.383" height="1.263"/></g></g><g transform="translate(-237.557 755.715)"><g class="ab" transform="matrix(1, 0, 0, 1, -287.72, -721.36)"><rect class="w" width="256.488" height="76.393" rx="11.919" transform="translate(287.72 721.36)"/></g><text class="x" transform="translate(68.036 48.729)"><tspan x="0" y="0">ENVIAR</tspan></text></g><g transform="translate(-524.778 34.854)"><g class="y"><path class="z" d="M-313.776,207.164c30.037-35.975,89.164-60.285,150.747-61.977s123.5,19.288,157.855,53.494c41.9,41.717,53.068,105.28,124.806,120.294,44.736,9.364,93.942-6.326,139.672.564C357.946,334.4,388.06,441.961,489.171,441.217c19.154-.141,38.141-4.643,57.138-3,42.118,3.653,65,34.2,78.759,61.057C662,571.33,682.282,658.7,609.554,717.334c-29.056,23.422-70.084,39.16-113.122,49.075-89.424,20.6-186.667,17.507-281.09,13.792C112.247,776.144,8.8,771.607-92.349,757.686c-53.632-7.383-108.658-18.183-148.859-43.031-36.683-22.672-57.048-54.629-72.853-86.309C-389.671,476.782-381.97,307.32-292.738,159.1" transform="translate(875.493 208.175)"/><path class="aa" d="M665.248,486.515c2.118-89.206-34.811-191.064-91.747-228.746s-129.234-22.3-175.912,37.417c-17.388,22.243-33.574,51.5-56.817,55.282-32.559,5.294-58.827-42.544-91.545-45.22-43.646-3.57-72.087,71.443-115.224,81.569-31.953,7.5-62.893-22.692-95.272-21.525-23.691.852-46.111,18.494-69.8,17.455-44.678-1.961-74.475-66.338-115.615-91.18-40.791-24.634-90.462-6.028-123.21,36.417s-50.04,104.934-55.135,167.5Z" transform="translate(965.134 411.435)"/><path class="b" d="M-330.33,451.668c-2.169-65.656,36.574-147.968,94.817-175.7S-103.3,259.55-55.553,303.5c17.789,16.372,34.347,37.9,58.125,40.685,33.308,3.9,60.179-31.309,93.651-33.276,44.649-2.631,73.747,52.578,117.874,60.028,32.687,5.521,64.342-16.7,97.464-15.84,24.239.628,47.171,13.613,71.408,12.847,45.707-1.442,76.186-48.822,118.275-67.107,41.727-18.128,92.545-4.435,126.043,26.8s51.19,77.23,56.4,123.277Z" transform="translate(953.264 463.471)"/></g></g></g></svg>