<svg xmlns="http://www.w3.org/2000/svg" width="48.677" height="209.903" viewBox="0 0 48.677 209.903"><defs><style>.a{fill:#ccc;mix-blend-mode:multiply;isolation:isolate;}.b{fill:#fff;}</style></defs><g transform="translate(-165.682 -85.02)"><g transform="translate(174.413 85.02)"><path class="a" d="M61.885,84.679l-7.514-7.543H47.682L55.2,84.679Z" transform="translate(-47.682 -53.229)"/><path class="a" d="M61.252,81.841l-.15,19.724H52.924l7.514,7.544h8.179l.151-19.725h6.657c.378-2.607.723-5.2,1.1-7.9L69.3,74.232c.044-.077.084-.158.132-.228.024-.032.044-.067.067-.1.041-.052.092-.092.136-.141a2.339,2.339,0,0,1,.339-.309c.062-.045.128-.082.195-.122a2.929,2.929,0,0,1,.38-.191c.074-.03.148-.06.226-.085a4.092,4.092,0,0,1,.465-.118c.071-.014.141-.032.215-.044a6.368,6.368,0,0,1,.745-.07c.579-.02,1.158-.025,1.736-.025.772,0,1.543.01,2.315.01h.559l.054-7.03-7.515-7.544-.054,7.031h-.559c-.771,0-1.543-.011-2.314-.011-.579,0-1.158.006-1.736.026a6.365,6.365,0,0,0-.745.07c-.075.011-.143.03-.216.044a4,4,0,0,0-.464.117c-.079.026-.152.056-.226.086a2.794,2.794,0,0,0-.382.191,2.2,2.2,0,0,0-.193.122,2.415,2.415,0,0,0-.341.309c-.032.036-.075.06-.106.1-.011.014-.019.03-.029.042-.025.031-.045.067-.067.1a2.284,2.284,0,0,0-.142.21c-.031.055-.056.12-.084.18-.017.037-.036.074-.052.114s-.026.051-.037.08a3.4,3.4,0,0,0-.137.462c0,.011,0,.026-.006.039-.012.061-.017.133-.029.2-.024.138-.05.272-.062.425,0,.066-.009.135-.011.2-.06,1.676-.1,5.377-.1,5.572l6.809,6.834c-.05.354-.1.711-.15,1.065Z" transform="translate(-46.386 -57.903)"/><g transform="translate(0 0)"><path class="b" d="M64.9,57.969c1.169,0,2.344.064,3.507.116.76.031,1.519.14,2.233.217l-.054,7.031h-.559c-.771,0-1.543-.01-2.314-.01-.579,0-1.158,0-1.736.025-1.863.062-3.234.761-3.329,3.088-.06,1.676-.1,5.377-.1,5.572.1,0,1.938.006,3.791.006.927,0,1.832,0,2.463-.006h1.506c-.378,2.7-.723,5.291-1.1,7.9H62.549l-.15,19.724H54.22l.151-19.755H47.682l.06-7.853h6.721l0-.59c.012-1.583-.006-3.166.052-4.749a19.636,19.636,0,0,1,.256-3.011,8.935,8.935,0,0,1,3.582-5.866,10.286,10.286,0,0,1,5.9-1.831Q64.578,57.969,64.9,57.969Z" transform="translate(-47.682 -57.969)"/></g></g><g transform="translate(166.929 168.101)"><path class="a" d="M215.669,70.389a6.443,6.443,0,0,0-.856.3c-.156.071-.3.158-.45.242a6.478,6.478,0,0,0-.7.438c-.143.106-.277.217-.412.334a6.447,6.447,0,0,0-.573.565c-.069.076-.153.136-.218.215s-.1.153-.153.226c-.1.137-.2.278-.289.424-.06.1-.136.182-.191.282-.066.117-.114.246-.172.368-.05.1-.1.2-.145.308-.025.061-.06.116-.082.178a6.2,6.2,0,0,0-.259.858l0,.02c-.006.029-.006.06-.012.089a6.294,6.294,0,0,0-.123.817c-.01.13-.016.261-.019.392a6.658,6.658,0,0,0,.027.708c.014.147.047.288.071.432.015.091.026.183.045.273a6.313,6.313,0,0,0,.286,1c.009.025.024.047.034.072.024.06.055.115.08.172a6.247,6.247,0,0,0,.449.842c.047.077.094.153.145.227.036.052.066.111.1.162a6.43,6.43,0,0,0,.612.713l0,0,5.3,5.325c-.273.022-.546.047-.826.047a9.788,9.788,0,0,1-6.962-2.883h0l7.515,7.543a9.783,9.783,0,0,0,6.961,2.884,10.134,10.134,0,0,0,1.09-.062c.117-.014.231-.036.347-.054.238-.035.476-.072.71-.123.135-.029.264-.066.4-.1.211-.056.419-.115.624-.183.135-.045.267-.095.4-.145.2-.076.388-.156.577-.243.13-.059.257-.118.382-.183.188-.1.372-.2.553-.307.116-.069.232-.135.346-.208.19-.123.372-.256.551-.392.095-.07.192-.136.284-.211.228-.183.447-.379.657-.581.036-.035.075-.065.111-.1.242-.241.471-.494.689-.757.011-.014.024-.025.034-.037s.032-.051.051-.075a10.043,10.043,0,0,0,.893-1.312c.01-.019.025-.034.036-.052l.01-.022a10.029,10.029,0,0,0,.545-1.166c.019-.046.045-.089.064-.135s.031-.117.051-.173a9.918,9.918,0,0,0,.3-1c.012-.054.035-.1.047-.157,0-.016,0-.034.008-.05a9.717,9.717,0,0,0,.19-1.259c0-.04.015-.079.019-.12.017-.229.027-.46.029-.694a9.924,9.924,0,0,0-.042-1.005v0a9.758,9.758,0,0,0-.2-1.217c-.025-.112-.054-.223-.084-.334-.079-.307-.173-.607-.281-.9-.022-.064-.036-.131-.06-.193-.011-.03-.029-.056-.04-.086a9.944,9.944,0,0,0-.5-1.056c-.035-.065-.076-.125-.112-.187-.16-.278-.333-.546-.518-.806-.034-.046-.059-.1-.092-.143s-.072-.081-.106-.123a9.807,9.807,0,0,0-.833-.969h0L224.472,69.5a9.831,9.831,0,0,1,.836.972c.067.087.133.176.2.266.186.259.358.529.518.806.037.064.079.123.113.187a9.715,9.715,0,0,1,.494,1.058c.037.091.067.186.1.278.107.294.2.6.281.9.029.111.059.221.084.333a9.81,9.81,0,0,1,.2,1.219,10,10,0,0,1,.044,1.009c0,.261-.024.516-.045.772l-5.314-5.332a6.333,6.333,0,0,0-4.448-1.865h-.057a6.392,6.392,0,0,0-1.381.158C215.947,70.291,215.812,70.347,215.669,70.389Zm4.155,9.866c.115-.155.243-.3.373-.442a6.408,6.408,0,0,1,.571-.564c.133-.117.269-.229.413-.336a6.464,6.464,0,0,1,.7-.438c.148-.082.3-.17.452-.242a6.379,6.379,0,0,1,.856-.3c.142-.041.278-.1.424-.131a6.473,6.473,0,0,1,1.382-.158h.057a6.315,6.315,0,0,1,2.135.41c-.029.181-.042.365-.081.543-.016.071-.039.138-.055.208a10.016,10.016,0,0,1-.3,1c-.037.1-.075.206-.115.307a10.154,10.154,0,0,1-.545,1.167c-.015.025-.031.049-.046.074a9.942,9.942,0,0,1-.894,1.313c-.029.036-.054.075-.084.11a9.944,9.944,0,0,1-.69.76c-.034.032-.071.061-.1.094-.213.2-.433.4-.664.587-.091.074-.187.14-.281.21-.182.136-.364.269-.555.393-.112.072-.228.14-.344.207-.181.109-.365.212-.554.308-.125.064-.252.125-.38.183q-.284.129-.579.243c-.132.05-.263.1-.4.145-.2.069-.414.127-.624.183-.132.034-.262.071-.4.1-.185.04-.373.067-.561.1a6.361,6.361,0,0,1-.262-.882c-.019-.09-.03-.182-.045-.273a6.351,6.351,0,0,1-.1-1.139,6.458,6.458,0,0,1,.141-1.212c.006-.027.008-.057.014-.085a6.246,6.246,0,0,1,.345-1.058c.044-.1.095-.206.143-.308a6.617,6.617,0,0,1,.364-.65C219.627,80.534,219.721,80.392,219.824,80.256Z" transform="translate(-198.102 -57.188)"/><path class="a" d="M210.535,101.892a10.6,10.6,0,0,0,4.968,2.7c1.543.4,6.138.57,10.738.57a95.49,95.49,0,0,0,10.661-.43,12.754,12.754,0,0,0,1.795-.428c.178-.056.343-.127.515-.19a10.426,10.426,0,0,0,1.1-.471c.18-.09.353-.186.524-.286a9.1,9.1,0,0,0,.937-.63c.143-.11.293-.213.429-.331a9.129,9.129,0,0,0,1-1c.044-.051.1-.089.14-.14a.212.212,0,0,1,.019-.027,10.041,10.041,0,0,0,.9-1.337c.012-.022.029-.039.041-.061.08-.142.137-.307.211-.455.156-.311.313-.621.445-.958.017-.046.042-.084.06-.13q.232-.612.414-1.281c.021-.081.042-.168.062-.263.029-.131.056-.283.082-.438,0-.026.009-.047.014-.075.041-.258.08-.551.116-.864.009-.079.017-.16.026-.242.031-.3.061-.61.087-.944,0-.037.007-.071.01-.109l0-.031c.029-.375.055-.775.077-1.187.007-.13.014-.266.021-.4.015-.307.03-.619.044-.942.007-.166.014-.333.02-.5.011-.313.021-.63.03-.953.005-.167.01-.332.014-.5q.015-.58.025-1.172c0-.1,0-.2.006-.3.008-.5.013-1,.016-1.5,0-.137,0-.272,0-.408q0-.556,0-1.106c0-.175,0-.346,0-.519,0-.339,0-.672-.005-1,0-.162,0-.322,0-.481,0-.377-.009-.743-.014-1.105,0-.1,0-.2,0-.3-.008-.458-.016-.9-.026-1.325,0-.084-.005-.16-.007-.243-.007-.333-.017-.655-.026-.96,0-.12-.009-.232-.012-.348q-.013-.382-.027-.726c-.005-.109-.01-.216-.014-.318-.011-.234-.022-.448-.034-.647,0-.066-.007-.14-.012-.2-.014-.237-.03-.448-.045-.62l0-.044a12.216,12.216,0,0,0-.287-1.676c-.041-.175-.1-.339-.155-.511-.081-.274-.147-.555-.249-.821-.035-.094-.087-.18-.126-.272-.061-.147-.131-.289-.2-.434a10.04,10.04,0,0,0-.58-1.042c-.081-.126-.156-.254-.243-.378-.042-.061-.075-.127-.12-.187a9.9,9.9,0,0,0-.949-1.1l-7.515-7.544a9.923,9.923,0,0,1,1.07,1.288c.087.123.161.252.242.379a9.577,9.577,0,0,1,.58,1.042c.069.143.14.287.2.433a10.247,10.247,0,0,1,.374,1.093c.051.172.113.338.156.513a12,12,0,0,1,.286,1.676c.017.178.034.4.05.657,0,.071.009.157.012.233.011.19.022.389.032.609V70.2l-5.464-5.484a6.865,6.865,0,0,0-3.9-1.872,88.571,88.571,0,0,0-9.663-.365c-3.848,0-7.677.1-9.364.287a8.617,8.617,0,0,0-1.327.264c-.136.037-.259.09-.39.133a7.168,7.168,0,0,0-.806.318c-.14.066-.272.142-.4.217a6.1,6.1,0,0,0-.655.422c-.122.09-.242.181-.357.279a6.153,6.153,0,0,0-.565.561c-.066.074-.146.131-.208.207-.027.034-.047.075-.074.109-.111.142-.206.3-.3.449-.077.118-.167.225-.237.349-.025.042-.04.092-.064.136-.066.123-.121.257-.18.387s-.132.258-.185.4c-.026.069-.041.146-.066.217-.052.152-.1.311-.141.47-.034.121-.079.233-.107.358-.04.178-.075.359-.1.545-.034.216-.065.469-.095.752-.01.1-.019.212-.029.316-.016.177-.032.346-.049.543l0,.082c-.007.095-.014.2-.02.3-.017.241-.032.488-.047.751-.007.131-.014.264-.021.4-.012.253-.025.513-.036.782-.006.148-.012.3-.017.448-.011.286-.021.58-.03.879,0,.137-.01.271-.014.412-.011.435-.022.882-.031,1.335l0,.244q-.011.569-.017,1.148c0,.171,0,.341-.006.511,0,.3,0,.6-.006.9,0,.186,0,.37,0,.555v.913c0,.162,0,.324,0,.485,0,.4,0,.79.009,1.175,0,.062,0,.126,0,.187,0,.448.012.883.02,1.307,0,.116,0,.225.007.339.007.306.014.6.022.891,0,.135.007.264.012.394.007.254.016.5.026.733.005.123.01.246.015.364.011.246.024.474.036.695,0,.081.009.17.014.247.017.276.036.531.056.752v.016c.024.256.049.475.075.647a8.094,8.094,0,0,0,.388,1.486c.021.059.027.13.049.187s.052.084.072.13a6.175,6.175,0,0,0,.7,1.293c.012.017.019.04.032.057a5.677,5.677,0,0,0,.548.637l5.509,5.532a19.458,19.458,0,0,1-3.056-.368,13.456,13.456,0,0,1-1.462-.466,9.946,9.946,0,0,1-3.5-2.231h0ZM238.467,70.93c0,.094.007.182.011.279,0,.128.009.256.014.39.009.281.016.577.025.882,0,.109,0,.21.007.321.007.276.012.57.017.859l-3.41-3.424c.581.044,1.085.092,1.458.148A7.91,7.91,0,0,1,238.467,70.93Zm-7.8-.872c-.041.02-.071.056-.112.074s-.074.026-.111.04a2.318,2.318,0,0,1-.833.167,2.287,2.287,0,0,1-1.078-.311C229.259,70.033,229.97,70.044,230.665,70.058Zm-3.738-.037c.476,0,.953,0,1.426.006L235.5,77.2a2.239,2.239,0,0,0,2.457.514c.037-.014.075-.022.111-.039a2.37,2.37,0,0,0,.51-.3v.145c0,.35,0,.7,0,1.056,0,.157,0,.313,0,.47,0,.5-.009,1-.016,1.489,0,.1,0,.193-.005.292-.007.4-.015.8-.025,1.191,0,.162-.009.321-.014.481-.009.328-.02.651-.031.968-.006.165-.012.328-.019.489-.014.327-.029.642-.045.954-.006.13-.012.266-.02.393-.024.424-.051.834-.081,1.219,0,.037-.006.071-.009.109-.026.334-.056.647-.087.944-.009.081-.017.162-.027.241-.035.313-.074.607-.116.866,0,.026-.009.047-.014.074-.045.266-.092.506-.143.7a13.56,13.56,0,0,1-.475,1.411c-.132.336-.287.644-.443.953-.086.173-.161.357-.254.521a9.833,9.833,0,0,1-.9,1.336c-.049.06-.107.109-.157.167a8.939,8.939,0,0,1-1,1.005c-.136.117-.284.221-.428.329a9.193,9.193,0,0,1-.938.631c-.171.1-.344.2-.523.286a10.533,10.533,0,0,1-1.1.47c-.172.064-.338.135-.516.19a12.781,12.781,0,0,1-1.794.429,95.526,95.526,0,0,1-10.661.43c-2.485,0-4.951-.051-6.953-.161l-.01-.017c-.042-.1-.082-.21-.12-.317a7.985,7.985,0,0,1-.388-1.487c-.027-.172-.052-.392-.075-.646-.021-.227-.04-.485-.059-.768,0-.08-.009-.17-.014-.253-.012-.216-.024-.442-.035-.682-.006-.122-.011-.251-.016-.379-.009-.231-.017-.469-.026-.717,0-.137-.009-.274-.012-.415-.007-.269-.014-.549-.02-.833,0-.133-.006-.263-.01-.4q-.011-.619-.019-1.275c0-.094,0-.19,0-.283q-.006-.541-.009-1.094v-.475q0-.471,0-.947c0-.168,0-.336,0-.5l.008-.977c0-.15,0-.3,0-.449,0-.4.01-.79.017-1.179l0-.231c.009-.458.02-.908.032-1.348,0-.121.008-.237.011-.355.01-.319.02-.634.031-.938.006-.142.011-.279.017-.417q.017-.413.037-.8c.006-.132.014-.264.02-.393.015-.271.032-.525.049-.772.006-.091.012-.188.019-.277.017-.232.036-.437.056-.644.009-.1.017-.21.027-.3.029-.282.06-.536.094-.751a8.311,8.311,0,0,1,.213-.9c.044-.16.089-.319.141-.471.074-.213.16-.415.249-.615.06-.13.115-.263.181-.387.09-.171.2-.327.3-.485s.193-.307.3-.448c.087-.112.188-.212.283-.317a6.119,6.119,0,0,1,.564-.56c.115-.1.236-.19.358-.281a6.652,6.652,0,0,1,.654-.422c.132-.075.264-.15.4-.216a7.169,7.169,0,0,1,.806-.318c.131-.044.256-.1.39-.135a8.636,8.636,0,0,1,1.328-.263C219.25,70.126,223.079,70.021,226.927,70.021Z" transform="translate(-199.923 -58.978)"/><g transform="translate(27.391 6.721)"><path class="b" d="M224.814,65.016h.027a2.3,2.3,0,0,1,2.3,2.327,2.343,2.343,0,0,1-2.345,2.313,2.32,2.32,0,0,1,.022-4.64Z" transform="translate(-222.497 -65.016)"/></g><g transform="translate(0 0)"><path class="b" d="M238.957,69.328c.287,3.041.473,17.412-.422,20.78A9.892,9.892,0,0,1,230,97.837a95.526,95.526,0,0,1-10.661.43c-4.6,0-9.2-.17-10.739-.57a9.7,9.7,0,0,1-7.695-8.427c-.519-3.259-.574-18.407.367-21.7a9.857,9.857,0,0,1,8.422-7.511,75.319,75.319,0,0,1,9.685-.435c3.607,0,7.246.1,9.436.218a10.648,10.648,0,0,1,7.055,2.886A10.17,10.17,0,0,1,238.957,69.328ZM235.24,88.634c.554-3.4.555-15.8.238-18.98a6.5,6.5,0,0,0-5.788-6.16,88.571,88.571,0,0,0-9.663-.365c-3.848,0-7.678.1-9.364.287a6.622,6.622,0,0,0-6.174,5.82,131.754,131.754,0,0,0-.133,19.508,6.266,6.266,0,0,0,4.77,5.462c1.5.42,5.991.571,10.394.571,4.054,0,8.034-.127,9.531-.292a6.6,6.6,0,0,0,6.189-5.85" transform="translate(-200.537 -59.628)"/></g><g transform="translate(9.418 9.421)"><path class="b" d="M218.08,67.181a9.821,9.821,0,0,1,9.826,9.916,10,10,0,0,1-9.992,9.9,9.812,9.812,0,0,1-9.826-9.916A9.984,9.984,0,0,1,218.08,67.181Zm-.143,16.311a6.473,6.473,0,0,0,6.462-6.348,6.344,6.344,0,0,0-6.3-6.472h-.057a6.472,6.472,0,0,0-6.462,6.348,6.352,6.352,0,0,0,6.3,6.471h.059" transform="translate(-208.088 -67.181)"/></g></g><g transform="translate(165.682 246.158)"><path class="a" d="M168.3,159.342c-.01-.226-.015-.45-.032-.676-.006-.077,0-.153-.011-.231q-.079-.844-.226-1.7c-.1-.591-.239-1.172-.394-1.745-.049-.18-.106-.354-.16-.533q-.178-.6-.392-1.179c-.035-.1-.06-.2-.1-.294-.026-.067-.065-.13-.092-.2a20.048,20.048,0,0,0-.988-2.117c-.059-.109-.122-.212-.183-.318a20.127,20.127,0,0,0-1.31-2.047l-.006-.009-.017-.021a20.548,20.548,0,0,0-1.947-2.266l-7.514-7.542a20.313,20.313,0,0,1,1.947,2.268l.022.029a20.248,20.248,0,0,1,1.312,2.048c.06.1.123.208.181.314a20.2,20.2,0,0,1,.989,2.118c.065.163.128.327.19.493.143.387.272.781.392,1.179.052.177.111.353.16.531.155.574.291,1.154.394,1.745.112.645.185,1.287.236,1.926.019.227.022.453.034.679.021.428.034.853.029,1.276,0,.246-.014.49-.026.736-.021.433-.052.864-.1,1.292-.02.175-.036.349-.06.523-.082.6-.183,1.2-.318,1.79-.006.032-.017.064-.025.1-.13.555-.286,1.1-.459,1.64-.054.163-.11.326-.167.488-.147.424-.311.842-.485,1.254-.069.161-.132.323-.2.481-.248.545-.513,1.08-.806,1.6-.061.111-.135.213-.2.322-.251.428-.51.848-.79,1.256l-6.661-6.686a.442.442,0,0,1,.107.157.167.167,0,0,1,.006.024.521.521,0,0,1,.025.148,4.829,4.829,0,0,1-.086,1.064c-.006.036-.009.076-.016.112a3.954,3.954,0,0,1-.287.849c-.022.051-.045.1-.07.151a3.919,3.919,0,0,1-.464.716,4.179,4.179,0,0,1-.767.712c-.085.062-.176.111-.263.167a5.039,5.039,0,0,1-.632.347c-.1.047-.211.091-.317.13a5.285,5.285,0,0,1-.654.2c-.095.022-.188.05-.281.067a5.088,5.088,0,0,1-.884.09c-.1,0-.2,0-.3-.011-2.834-.1-6.856-1.719-10.491-5.367l7.514,7.542a18.131,18.131,0,0,0,8.831,5.143c-.128.085-.256.172-.387.254-.318.2-.644.384-.974.565-.236.13-.47.261-.712.382-.35.176-.711.333-1.073.488-.237.1-.47.21-.713.3-.407.157-.827.291-1.249.422-.211.066-.415.143-.629.2-.642.177-1.3.331-1.966.448a21.154,21.154,0,0,1-3.581.309,20.292,20.292,0,0,1-7-1.256c.021-.061.035-.125.056-.185a4.563,4.563,0,0,0,.166-.551c.016-.075.021-.147.034-.221.007-.047.016-.1.021-.142s.016-.087.02-.128a2.984,2.984,0,0,0,0-.518c0-.015-.009-.029-.01-.042a3.524,3.524,0,0,0-.211-.868c0-.009,0-.017-.007-.026a5.679,5.679,0,0,0-.357-.747,17.009,17.009,0,0,1-.939-1.988c-.061-.156-.1-.316-.156-.473a16.559,16.559,0,0,1-.518-1.655c-.064-.257-.1-.516-.153-.776-.09-.458-.173-.917-.225-1.376-.055-.5-.1-.994-.109-1.489,0-.059-.007-.118-.009-.177,0-.559.03-1.115.08-1.668a16.982,16.982,0,0,1,.338-2.235l.007-.029a17.189,17.189,0,0,1,.636-2.105c.075-.2.167-.4.251-.6a17.079,17.079,0,0,1,.73-1.562c.151-.284.3-.569.466-.844.1-.166.2-.332.306-.493q.389-.6.828-1.166c.076-.1.145-.2.223-.3a17.325,17.325,0,0,1,1.182-1.316c.109-.11.223-.211.334-.317.146-.14.3-.268.455-.4.06.158.126.313.183.473h0a1.062,1.062,0,0,1,.062.526l0,.026a1.722,1.722,0,0,1-.193.541l-.015.03c-.029.052-.082.117-.117.172a5.792,5.792,0,0,1-.4.559c-.178.221-.378.455-.614.721l-.047.056a1.3,1.3,0,0,0-.135.195l-.009.019-.01.022c-.016.03-.031.061-.044.091a.963.963,0,0,0-.034.112c0,.017,0,.035-.007.052l0,.021c0,.012,0,.025,0,.037a.656.656,0,0,0,0,.131.631.631,0,0,0,.015.066,1.068,1.068,0,0,0,.026.1c.007.027.009.052.019.081a1.484,1.484,0,0,0,.085.175,15.409,15.409,0,0,0,.949,1.443c.017.024.039.042.055.065a14.236,14.236,0,0,0,1.277,1.486l7.514,7.543a14.063,14.063,0,0,1-1.276-1.484,15.686,15.686,0,0,1-1.005-1.508,1.224,1.224,0,0,1-.1-.256c-.01-.035-.019-.071-.025-.1a.793.793,0,0,1-.011-.236l0-.021a.881.881,0,0,1,.085-.256l.01-.021a1.479,1.479,0,0,1,.191-.271c.22-.246.415-.471.585-.68.012-.015.016-.025.029-.04a5.752,5.752,0,0,0,.394-.558c.031-.05.085-.11.111-.157l.009-.017.014-.029a2.2,2.2,0,0,0,.117-.248,1.335,1.335,0,0,0,.062-.2.786.786,0,0,0,.014-.092l0-.026c0-.017.006-.036.007-.055a.977.977,0,0,0,0-.181,1.07,1.07,0,0,0-.069-.291h0c-.1-.264-.193-.526-.294-.788-.064-.166-.137-.328-.2-.494q-.539-1.36-1.118-2.705a2.259,2.259,0,0,0-.2-.342,1.048,1.048,0,0,0-.112-.131l-4.54-4.558c.355-.262.713-.521,1.091-.757.061-.039.118-.082.182-.12a16.713,16.713,0,0,1,1.621-.858c.155-.072.316-.137.473-.2q.649-.281,1.33-.509c.175-.059.348-.118.526-.172a16.655,16.655,0,0,1,5-.75,16.866,16.866,0,0,1,11.96,4.968l-7.515-7.542a16.862,16.862,0,0,0-11.959-4.969,17.26,17.26,0,0,0-3.113.284,17.5,17.5,0,0,0-1.882.465c-.178.054-.352.115-.526.173q-.681.228-1.33.508c-.158.069-.318.132-.474.2a17.275,17.275,0,0,0-1.622.858c-.062.039-.12.082-.182.121-.458.286-.9.591-1.321.916-.143.11-.283.223-.424.338q-.533.434-1.027.907c-.112.107-.227.21-.337.319-.393.4-.771.806-1.123,1.236-.021.026-.039.054-.06.08-.077.1-.146.2-.222.3q-.438.567-.829,1.165c-.1.162-.2.327-.3.493s-.206.317-.3.481c-.065.117-.107.244-.17.363q-.4.763-.73,1.563c-.057.14-.138.269-.192.41-.024.062-.035.128-.057.192a17.145,17.145,0,0,0-.636,2.107l-.007.025v0a17.223,17.223,0,0,0-.338,2.235c-.006.071-.026.141-.031.212q-.056.724-.047,1.456c0,.06.007.121.009.182.009.4.022.792.06,1.19.009.1.037.2.047.294.051.46.135.918.226,1.377.051.258.089.518.153.776a16.569,16.569,0,0,0,.516,1.65c.051.141.077.286.133.427.006.017.017.034.024.051a17.2,17.2,0,0,0,.938,1.988,5.619,5.619,0,0,1,.364.772,3.494,3.494,0,0,1,.212.869,3.1,3.1,0,0,1-.006.689c-.006.046-.015.095-.022.142a3.929,3.929,0,0,1-.2.771c-.253.722-.46,1.456-.662,2.212s-.4,1.537-.629,2.351h0l2.757,2.768c-3.976,1.024-6.641,1.754-7.557,1.935l7.514,7.542c1.1-.217,4.712-1.225,10.139-2.591a1.686,1.686,0,0,1,.408-.047,1.945,1.945,0,0,1,.848.187,20.682,20.682,0,0,0,9.161,2.17,21.268,21.268,0,0,0,3.58-.308c.67-.118,1.325-.271,1.966-.449.213-.059.417-.136.626-.2.423-.132.844-.267,1.254-.424.241-.092.471-.2.706-.3.364-.156.727-.314,1.08-.49.241-.12.473-.251.707-.379.332-.182.66-.369.978-.568.232-.145.457-.294.681-.448q.458-.312.9-.647c.216-.165.429-.332.637-.505.284-.236.56-.48.831-.731.2-.181.392-.36.58-.548.268-.268.523-.548.776-.829.17-.188.342-.373.5-.568.051-.061.109-.116.158-.178.206-.252.389-.52.583-.782.135-.182.278-.359.407-.546.286-.414.55-.844.8-1.28.065-.11.138-.213.2-.323l.019-.03c.286-.51.544-1.036.786-1.572.072-.158.136-.321.2-.481.1-.238.211-.473.3-.716.067-.176.121-.358.183-.536s.113-.324.166-.489c.173-.539.331-1.084.459-1.639.009-.032.019-.065.026-.1l.005-.02c.132-.581.231-1.172.312-1.769.025-.173.041-.349.06-.524.026-.231.061-.459.08-.692.015-.2.011-.4.021-.6.011-.243.022-.486.025-.731C168.335,160.2,168.322,159.769,168.3,159.342Z" transform="translate(-119.654 -132.54)"/><g transform="translate(10.397 11.009)"><path class="b" d="M131.4,142.034a7.159,7.159,0,0,1,1.181.137c.233.031.448.373.57.621.564,1.32,1.128,2.638,1.614,3.989.274.713-.227,1.4-1.276,2.576a.9.9,0,0,0-.148,1.164,13.812,13.812,0,0,0,7.061,6.1,1.073,1.073,0,0,0,.385.079.878.878,0,0,0,.687-.373c1.316-1.59,1.691-2.285,2.224-2.285a1.025,1.025,0,0,1,.447.127c4.114,1.971,4.438,2.049,4.45,2.515a4.5,4.5,0,0,1-4.721,4.6c-.1,0-.2,0-.3-.01-3.988-.14-10.326-3.29-14.63-10.864a6.161,6.161,0,0,1,1.007-7.852A2.007,2.007,0,0,1,131.4,142.034Z" transform="translate(-127.989 -142.034)"/></g><g transform="translate(0 0)"><path class="b" d="M160.517,149.863a20.671,20.671,0,0,1-16.726,23.977,21.154,21.154,0,0,1-3.581.309,20.671,20.671,0,0,1-9.161-2.172,1.956,1.956,0,0,0-.847-.186,1.707,1.707,0,0,0-.409.046c-5.426,1.366-9.034,2.375-10.138,2.592.239-.884.448-1.66.655-2.436.7-2.483,1.419-4.951,2.074-7.434a1.851,1.851,0,0,0-.1-1.195,20.57,20.57,0,0,1,13.619-29.6,21.076,21.076,0,0,1,4.806-.563A20.187,20.187,0,0,1,160.517,149.863Zm-17.571,20.688a17.237,17.237,0,0,0,14.364-19.414,16.914,16.914,0,0,0-16.735-14.562,17.26,17.26,0,0,0-3.113.284c-11.5,2.11-17.7,14.914-12.064,25.064a3.5,3.5,0,0,1,.348,3.243c-.508,1.443-.829,2.934-1.292,4.563,2.038-.528,3.919-.993,5.785-1.52a1.9,1.9,0,0,1,.488-.069,1.785,1.785,0,0,1,.908.271,16.775,16.775,0,0,0,8.528,2.369,17.451,17.451,0,0,0,2.784-.227" transform="translate(-119.654 -133.208)"/></g></g></g></svg>